Coordinates
version=1
nRows=32
nColumns=22
inDegrees=yes

Units are S.I. units (second, meters, Newtons, ...)
If the header above contains a line with 'inDegrees', this indicates whether rotational values are in degrees (yes) or radians (no).

endheader
time	pelvis_tilt	pelvis_list	pelvis_rotation	pelvis_tx	pelvis_ty	pelvis_tz	hip_flexion_r	hip_adduction_r	hip_rotation_r	knee_angle_r	ankle_angle_r	subtalar_angle_r	hip_flexion_l	hip_adduction_l	hip_rotation_l	knee_angle_l	ankle_angle_l	subtalar_angle_l	lumbar_extension	lumbar_bending	lumbar_rotation
      0.98000000	      1.17721343	      2.39763472	    -15.18954770	     -0.00966691	      0.86179524	     -0.21457334	    -16.20932882	     -1.78947802	      0.18164629	    -27.07482592	     14.73652129	     -1.74862513	     31.05951952	     -0.81782518	    -11.84417537	    -30.29580109	      4.49263307	     -6.15979269	     -9.19245738	     -5.52575000	     11.18706940
      0.99000000	      1.13996621	      2.89020497	    -14.93580617	      0.00321504	      0.86259993	     -0.21427924	    -15.57695261	     -2.31802748	      0.57236602	    -29.08214180	     12.53399033	     -1.11171090	     30.86464252	      0.04968846	    -11.33965675	    -31.04050659	      4.68952713	     -6.88924911	     -8.94164440	     -5.99800600	     11.15243344
      1.00000000	      1.12371507	      3.30429487	    -14.67888583	      0.01596594	      0.86357774	     -0.21393536	    -14.80336192	     -2.75039808	      1.01025537	    -31.33597572	     10.26665216	     -0.41019885	     30.54612257	      0.84790861	    -10.86540100	    -31.65762182	      5.12043759	     -7.65893206	     -8.74926243	     -6.38707687	     11.09694319
      1.01000000	      1.13049805	      3.65018390	    -14.43397495	      0.02851759	      0.86471400	     -0.21355735	    -13.87203854	     -3.10775409	      1.46222716	    -33.84037316	      8.02391367	      0.24112467	     30.09477965	      1.58342975	    -10.42052437	    -32.12111000	      5.66572837	     -8.39010654	     -8.62065711	     -6.70056893	     11.01496150
      1.02000000	      1.12478003	      3.96976499	    -14.24215093	      0.04078353	      0.86586144	     -0.21310639	    -12.68116215	     -3.46829261	      1.81043709	    -36.65991633	      5.96892945	      0.63275389	     29.58100379	      2.24041290	    -10.12422288	    -32.46981231	      6.24317587	     -8.91957655	     -8.50441772	     -6.98084295	     10.97361152
      1.03000000	      1.13974680	      4.19664035	    -14.06868885	      0.05274237	      0.86714430	     -0.21261412	    -11.35418950	     -3.74092085	      2.11851843	    -39.63116296	      4.03156388	      1.11356021	     28.94599430	      2.79826178	     -9.84075640	    -32.68091381	      6.91347473	     -9.56430076	     -8.46815213	     -7.15721317	     10.88118549
      1.04000000	      1.15552195	      4.46828759	    -14.00208745	      0.06437497	      0.86843138	     -0.21201343	     -9.79590191	     -4.12343615	      2.33808028	    -42.78841142	      2.49712156	      1.17831513	     28.22848622	      3.33296278	     -9.74035887	    -32.72491425	      7.55441774	     -9.82935798	     -8.43436362	     -7.38457019	     10.85031869
      1.05000000	      1.18993587	      4.73061007	    -13.98605921	      0.07571049	      0.86977222	     -0.21137162	     -8.10617351	     -4.55652050	      2.43888663	    -45.98351169	      1.30529226	      1.13212777	     27.43359218	      3.80844997	     -9.80183384	    -32.66549129	      8.22988839	    -10.01338987	     -8.44677126	     -7.59435409	     10.75961562
      1.06000000	      1.22966962	      4.99563770	    -14.03443786	      0.08674048	      0.87117127	     -0.21069507	     -6.28801264	     -5.05374865	      2.46187110	    -49.14363493	      0.55410354	      0.96526310	     26.56739185	      4.25486590	     -9.94365314	    -32.47196624	      8.87438518	    -10.16040951	     -8.48034377	     -7.79899099	     10.70678773
      1.07000000	      1.29281625	      5.27332356	    -14.13938432	      0.09752317	      0.87266176	     -0.20998804	     -4.40223647	     -5.62238617	      2.43536017	    -52.17625967	      0.27591509	      0.59769515	     25.61684760	      4.68800754	    -10.18813367	    -32.14935591	      9.47453381	    -10.24543408	     -8.54621542	     -8.01005402	     10.63841717
      1.08000000	      1.38528201	      5.54946140	    -14.27862106	      0.10809927	      0.87426431	     -0.20921849	     -2.49803048	     -6.23718127	      2.35480371	    -55.00660361	      0.48318502	     -0.41333120	     24.58491783	      5.10000920	    -10.52179588	    -31.71996870	     10.04133819	    -10.31685023	     -8.64633405	     -8.22300755	     10.54447544
      1.09000000	      1.53869074	      5.81278112	    -14.43694899	      0.11853646	      0.87605800	     -0.20843841	     -0.64757620	     -6.88391902	      2.24247696	    -57.57104725	      1.03786271	     -1.44843989	     23.42654955	      5.51754427	    -10.87658565	    -31.16598616	     10.52091573	    -10.19671604	     -8.81613043	     -8.42401228	     10.42985825
      1.10000000	      1.72044977	      6.02403660	    -14.56976224	      0.12886093	      0.87799744	     -0.20765080	      1.13433515	     -7.48621228	      2.09169579	    -59.82327659	      1.91305746	     -2.70711237	     22.19173873	      5.90563619	    -11.19943033	    -30.53678410	     10.95580098	    -10.04602956	     -9.02655482	     -8.56202427	     10.23604661
      1.11000000	      1.92067597	      6.16554128	    -14.66818775	      0.13908114	      0.88008627	     -0.20687224	      2.83913434	     -8.00529548	      1.92205405	    -61.74711518	      2.94425956	     -4.02225728	     20.88877337	      6.25966777	    -11.42618885	    -29.83344525	     11.31888151	     -9.89060388	     -9.27153638	     -8.61473258	     10.01032481
      1.12000000	      2.13242365	      6.21702248	    -14.69741700	      0.14923407	      0.88229103	     -0.20611089	      4.43899956	     -8.41312521	      1.68908497	    -63.32420134	      4.06433142	     -5.43684266	     19.54286533	      6.55161304	    -11.56061687	    -29.10817139	     11.64795070	     -9.73842828	     -9.54747149	     -8.55689823	      9.68449591
      1.13000000	      2.34075269	      6.17209953	    -14.65143433	      0.15934764	      0.88457756	     -0.20535773	      5.93181364	     -8.69599785	      1.38533937	    -64.54928560	      5.19185830	     -6.87487660	     18.16689901	      6.76437410	    -11.60042324	    -28.36556432	     11.95855150	     -9.59674129	     -9.83522332	     -8.37966301	      9.26019381
      1.14000000	      2.54553360	      6.04675241	    -14.54267103	      0.16939517	      0.88691024	     -0.20461589	      7.32688423	     -8.86238828	      1.03572842	    -65.44441884	      6.29838576	     -8.21632391	     16.76547851	      6.91608068	    -11.51958200	    -27.59846419	     12.24402185	     -9.46576516	    -10.13201428	     -8.10023809	      8.79751879
      1.15000000	      2.74524313	      5.86062293	    -14.36782716	      0.17941929	      0.88926091	     -0.20387138	      8.62230566	     -8.95452728	      0.59825621	    -66.01856050	      7.32288120	     -9.40697648	     15.33452539	      7.01868026	    -11.32727264	    -26.79107779	     12.47449423	     -9.33939156	    -10.42483285	     -7.74745131	      8.28427395
      1.16000000	      2.91567393	      5.60912432	    -14.17077949	      0.18932757	      0.89150113	     -0.20303340	      9.87191162	     -8.93099396	      0.15270407	    -66.31926662	      8.32194777	    -10.64924394	     13.94591538	      7.00870450	    -11.18188738	    -26.03327078	     12.76194557	     -9.18990772	    -10.69545778	     -7.31868389	      7.73438842
      1.17000000	      3.10029190	      5.33683330	    -13.92200880	      0.19923883	      0.89371186	     -0.20219749	     11.01464210	     -8.90029621	     -0.38682942	    -66.33529898	      9.18617374	    -11.57416667	     12.50709047	      6.98945514	    -10.93147250	    -25.21394301	     12.97234509	     -9.03367931	    -10.97091270	     -6.86833015	      7.15970689
      1.18000000	      3.25245766	      5.06969637	    -13.69679378	      0.20902985	      0.89569168	     -0.20121633	     12.15871328	     -8.82181753	     -0.87411234	    -66.13914037	     10.05890815	    -12.58530193	     11.12814751	      6.91496247	    -10.81088886	    -24.43034826	     13.22941858	     -8.82345655	    -11.20154768	     -6.43054403	      6.58593745
      1.19000000	      3.40937263	      4.80679182	    -13.46294476	      0.21879894	      0.89751540	     -0.20019912	     13.23777790	     -8.74946297	     -1.38965788	    -65.71652057	     10.83732609	    -13.33835028	      9.74104275	      6.83298391	    -10.67267054	    -23.63485313	     13.45775690	     -8.58939773	    -11.42433247	     -6.00042055	      6.01780446
      1.20000000	      3.55459823	      4.56427040	    -13.23971398	      0.22849812	      0.89910272	     -0.19910117	     14.29158315	     -8.67801345	     -1.88791812	    -65.10320753	     11.55615283	    -13.93211008	      8.38868305	      6.74305900	    -10.57062353	    -22.86123332	     13.68765811	     -8.32142656	    -11.62403746	     -5.60070489	      5.45653312
      1.21000000	      3.68747028	      4.34412237	    -13.01323371	      0.23812769	      0.90043301	     -0.19796021	     15.31637251	     -8.61758121	     -2.38166143	    -64.31021088	     12.18170027	    -14.24817884	      7.08033621	      6.65649526	    -10.45835167	    -22.12307341	     13.92992526	     -8.07779847	    -11.80597240	     -5.22908136	      4.87923328
      1.22000000	      3.80956996	      4.14402915	    -12.83714009	      0.24767893	      0.90148129	     -0.19667473	     16.31962993	     -8.54831130	     -2.81878692	    -63.34978027	     12.78189360	    -14.55223853	      5.82174617	      6.55655742	    -10.42988980	    -21.43855122	     14.19848709	     -7.77818205	    -11.96646391	     -4.89596168	      4.35822584
      1.23000000	      3.91367821	      3.96001075	    -12.68610417	      0.25714726	      0.90224326	     -0.19528768	     17.29599986	     -8.47695673	     -3.23607349	    -62.22449293	     13.31317071	    -14.79887115	      4.62279928	      6.44912049	    -10.43187945	    -20.81000356	     14.47799034	     -7.44266300	    -12.10608086	     -4.59102288	      3.88961987
      1.24000000	      3.99672270	      3.79458843	    -12.56085900	      0.26652575	      0.90270547	     -0.19379109	     18.24832024	     -8.40621297	     -3.63282062	    -60.94686731	     13.76598483	    -14.88687757	      3.49559633	      6.34086026	    -10.44202554	    -20.25358268	     14.79884493	     -7.14605171	    -12.22235281	     -4.31734471	      3.43272993
      1.25000000	      4.06985956	      3.64077420	    -12.44909717	      0.27582620	      0.90289682	     -0.19218562	     19.14865560	     -8.34599458	     -4.04833737	    -59.51320938	     14.15324847	    -14.85037950	      2.42732689	      6.22563753	    -10.46819065	    -19.77226852	     15.17412015	     -6.89465137	    -12.33036206	     -4.07099619	      2.99749425
      1.26000000	      4.15475052	      3.47290489	    -12.35646910	      0.28506527	      0.90290728	     -0.19047221	     19.94960371	     -8.26598718	     -4.47522951	    -57.90104776	     14.45214193	    -14.71531736	      1.36502964	      6.09423689	    -10.46056157	    -19.32211633	     15.52926167	     -6.62189984	    -12.46095958	     -3.82513355	      2.62475567
      1.27000000	      4.23497300	      3.31441743	    -12.26994523	      0.29424262	      0.90266757	     -0.18864663	     20.68077941	     -8.20432713	     -4.95327943	    -56.14168906	     14.72726804	    -14.50398834	      0.35951883	      5.95346822	    -10.48496000	    -18.96009157	     15.98057370	     -6.41619330	    -12.58820141	     -3.60371044	      2.24877208
      1.28000000	      4.34896113	      3.13416587	    -12.19164905	      0.30339816	      0.90232350	     -0.18670321	     21.26584219	     -8.13705182	     -5.50862321	    -54.19779499	     14.91126377	    -14.17451190	     -0.67625987	      5.79405840	    -10.47797253	    -18.61522679	     16.40196982	     -6.20405336	    -12.76018776	     -3.38182029	      1.94258824
      1.29000000	      4.46698222	      2.95895657	    -12.11756928	      0.31250395	      0.90179026	     -0.18464015	     21.75626622	     -8.07675262	     -6.12691502	    -52.10057924	     15.07748628	    -13.80185237	     -1.67728156	      5.62696415	    -10.48598126	    -18.33770255	     16.89427998	     -6.02901191	    -12.93901440	     -3.18207898	      1.64338358
